<?xml version="1.0" encoding="UTF-8"?>
<svg width="559px" height="168px" viewBox="0 0 559 168" version="1.1" xmlns="http://www.w3.org/2000/svg" xmlns:xlink="http://www.w3.org/1999/xlink" xmlns:sketch="http://www.bohemiancoding.com/sketch/ns">
    <!-- Generator: Sketch 3.2.2 (9983) - http://www.bohemiancoding.com/sketch -->
    <title>Spotify_Logo_RGB_Green</title>
    <desc>Created with Sketch.</desc>
    <defs></defs>
    <g id="Page-1" stroke="none" stroke-width="1" fill="none" fill-rule="evenodd" sketch:type="MSPage">
        <g id="Spotify_Logo_RGB_Green" sketch:type="MSLayerGroup" fill="#1ED760">
            <path d="M133.5324,74.4767 C106.5384,58.4457 62.0124,56.9717 36.2434,64.7927 C32.1044,66.0487 27.7284,63.7127 26.4754,59.5747 C25.2214,55.4337 27.5544,51.0607 31.6954,49.8027 C61.2774,40.8237 110.4514,42.5577 141.5274,61.0047 C145.2504,63.2147 146.4704,68.0217 144.2644,71.7377 C142.0564,75.4597 137.2454,76.6867 133.5324,74.4767 M132.6484,98.2207 C130.7544,101.2937 126.7364,102.2577 123.6674,100.3707 C101.1634,86.5377 66.8454,82.5297 40.2204,90.6117 C36.7684,91.6547 33.1214,89.7087 32.0724,86.2617 C31.0324,82.8097 32.9794,79.1697 36.4264,78.1197 C66.8414,68.8897 104.6524,73.3597 130.5004,89.2447 C133.5694,91.1347 134.5354,95.1547 132.6484,98.2207 M122.4014,121.0237 C120.8964,123.4917 117.6834,124.2647 115.2244,122.7607 C95.5594,110.7417 70.8074,108.0277 41.6574,114.6857 C38.8484,115.3297 36.0484,113.5697 35.4084,110.7617 C34.7644,107.9527 36.5184,105.1527 39.3334,104.5117 C71.2334,97.2197 98.5964,100.3577 120.6694,113.8457 C123.1304,115.3487 123.9054,118.5637 122.4014,121.0237 M83.9954,0.2367 C37.7464,0.2367 0.2524,37.7297 0.2524,83.9787 C0.2524,130.2327 37.7464,167.7237 83.9954,167.7237 C130.2464,167.7237 167.7394,130.2327 167.7394,83.9787 C167.7394,37.7297 130.2464,0.2367 83.9954,0.2367" id="Fill-1" sketch:type="MSShapeGroup"></path>
            <path d="M228.0887,77.5462 C213.6297,74.0982 211.0557,71.6782 211.0557,66.5932 C211.0557,61.7892 215.5787,58.5572 222.3047,58.5572 C228.8247,58.5572 235.2887,61.0122 242.0677,66.0662 C242.2727,66.2192 242.5297,66.2802 242.7827,66.2402 C243.0357,66.2022 243.2597,66.0642 243.4077,65.8542 L250.4677,55.9022 C250.7577,55.4922 250.6787,54.9272 250.2877,54.6142 C242.2207,48.1412 233.1367,44.9942 222.5187,44.9942 C206.9067,44.9942 196.0017,54.3622 196.0017,67.7682 C196.0017,82.1432 205.4087,87.2322 221.6647,91.1622 C235.5007,94.3492 237.8357,97.0182 237.8357,101.7922 C237.8357,107.0812 233.1147,110.3692 225.5157,110.3692 C217.0757,110.3692 210.1917,107.5262 202.4907,100.8572 C202.2997,100.6932 202.0377,100.6172 201.7957,100.6312 C201.5407,100.6522 201.3077,100.7702 201.1457,100.9652 L193.2297,110.3862 C192.8977,110.7772 192.9397,111.3612 193.3237,111.6992 C202.2837,119.6982 213.3037,123.9232 225.1947,123.9232 C242.0187,123.9232 252.8887,114.7312 252.8887,100.5042 C252.8887,88.4802 245.7057,81.8302 228.0887,77.5462" id="Fill-3" sketch:type="MSShapeGroup"></path>
            <path d="M303.1621,93.6611 C303.1621,103.8141 296.9081,110.8991 287.9531,110.8991 C279.1001,110.8991 272.4221,103.4921 272.4221,93.6611 C272.4221,83.8311 279.1001,76.4231 287.9531,76.4231 C296.7641,76.4231 303.1621,83.6711 303.1621,93.6611 M290.9501,63.2861 C283.6581,63.2861 277.6771,66.1581 272.7451,72.0431 L272.7451,65.4191 C272.7451,64.8961 272.3211,64.4701 271.7981,64.4701 L258.8521,64.4701 C258.3291,64.4701 257.9061,64.8961 257.9061,65.4191 L257.9061,139.0211 C257.9061,139.5441 258.3291,139.9701 258.8521,139.9701 L271.7981,139.9701 C272.3211,139.9701 272.7451,139.5441 272.7451,139.0211 L272.7451,115.7881 C277.6781,121.3251 283.6601,124.0291 290.9501,124.0291 C304.4991,124.0291 318.2151,113.5991 318.2151,93.6611 C318.2151,73.7191 304.4991,63.2861 290.9501,63.2861" id="Fill-5" sketch:type="MSShapeGroup"></path>
            <path d="M353.3732,111.0051 C344.0922,111.0051 337.0952,103.5481 337.0952,93.6611 C337.0952,83.7321 343.8502,76.5271 353.1592,76.5271 C362.4992,76.5271 369.5442,83.9841 369.5442,93.8781 C369.5442,103.8051 362.7432,111.0051 353.3732,111.0051 M353.3732,63.2861 C335.9242,63.2861 322.2542,76.7221 322.2542,93.8781 C322.2542,110.8471 335.8302,124.1421 353.1592,124.1421 C370.6702,124.1421 384.3822,110.7501 384.3822,93.6611 C384.3822,76.6281 370.7642,63.2861 353.3732,63.2861" id="Fill-7" sketch:type="MSShapeGroup"></path>
            <path d="M421.6439,64.4703 L407.3969,64.4703 L407.3969,49.9043 C407.3969,49.3813 406.9749,48.9553 406.4519,48.9553 L393.5069,48.9553 C392.9829,48.9553 392.5569,49.3813 392.5569,49.9043 L392.5569,64.4703 L386.3319,64.4703 C385.8109,64.4703 385.3889,64.8963 385.3889,65.4193 L385.3889,76.5453 C385.3889,77.0683 385.8109,77.4943 386.3319,77.4943 L392.5569,77.4943 L392.5569,106.2853 C392.5569,117.9203 398.3479,123.8203 409.7689,123.8203 C414.4129,123.8203 418.2659,122.8613 421.8979,120.8023 C422.1919,120.6373 422.3759,120.3193 422.3759,119.9813 L422.3759,109.3853 C422.3759,109.0583 422.2059,108.7493 421.9259,108.5783 C421.6439,108.4013 421.2929,108.3923 421.0039,108.5353 C418.5099,109.7903 416.0989,110.3693 413.4039,110.3693 C409.2509,110.3693 407.3969,108.4833 407.3969,104.2563 L407.3969,77.4943 L421.6439,77.4943 C422.1669,77.4943 422.5879,77.0683 422.5879,76.5453 L422.5879,65.4193 C422.5879,64.8963 422.1669,64.4703 421.6439,64.4703" id="Fill-9" sketch:type="MSShapeGroup"></path>
            <path d="M471.281,64.5267 L471.281,62.7377 C471.281,57.4747 473.299,55.1277 477.825,55.1277 C480.524,55.1277 482.692,55.6637 485.12,56.4737 C485.419,56.5677 485.731,56.5207 485.974,56.3417 C486.224,56.1627 486.365,55.8757 486.365,55.5727 L486.365,44.6617 C486.365,44.2457 486.097,43.8757 485.696,43.7537 C483.131,42.9907 479.849,42.2067 474.935,42.2067 C462.976,42.2067 456.656,48.9417 456.656,61.6737 L456.656,64.4137 L450.437,64.4137 C449.914,64.4137 449.486,64.8397 449.486,65.3617 L449.486,76.5457 C449.486,77.0677 449.914,77.4947 450.437,77.4947 L456.656,77.4947 L456.656,121.9037 C456.656,122.4267 457.078,122.8527 457.6,122.8527 L470.546,122.8527 C471.069,122.8527 471.495,122.4267 471.495,121.9037 L471.495,77.4947 L483.583,77.4947 L502.1,121.8917 C499.998,126.5567 497.931,127.4847 495.109,127.4847 C492.828,127.4847 490.426,126.8037 487.97,125.4607 C487.739,125.3337 487.466,125.3117 487.216,125.3897 C486.969,125.4767 486.761,125.6607 486.656,125.9007 L482.268,135.5277 C482.059,135.9827 482.237,136.5167 482.675,136.7527 C487.256,139.2337 491.392,140.2927 496.502,140.2927 C506.062,140.2927 511.346,135.8397 516.005,123.8597 L538.466,65.8187 C538.578,65.5277 538.545,65.1977 538.366,64.9387 C538.188,64.6817 537.901,64.5267 537.587,64.5267 L524.109,64.5267 C523.706,64.5267 523.344,64.7837 523.212,65.1627 L509.405,104.5997 L494.282,65.1367 C494.144,64.7697 493.791,64.5267 493.398,64.5267 L471.281,64.5267 Z" id="Fill-11" sketch:type="MSShapeGroup"></path>
            <path d="M442.5048,64.4703 L429.5578,64.4703 C429.0358,64.4703 428.6098,64.8963 428.6098,65.4193 L428.6098,121.9033 C428.6098,122.4263 429.0358,122.8523 429.5578,122.8523 L442.5048,122.8523 C443.0268,122.8523 443.4538,122.4263 443.4538,121.9033 L443.4538,65.4193 C443.4538,64.8963 443.0268,64.4703 442.5048,64.4703" id="Fill-13" sketch:type="MSShapeGroup"></path>
            <path d="M436.0974,38.7513 C430.9684,38.7513 426.8064,42.9033 426.8064,48.0323 C426.8064,53.1643 430.9684,57.3213 436.0974,57.3213 C441.2244,57.3213 445.3824,53.1643 445.3824,48.0323 C445.3824,42.9033 441.2244,38.7513 436.0974,38.7513" id="Fill-15" sketch:type="MSShapeGroup"></path>
            <path d="M550.0493,70.0888 L547.6773,70.0888 L547.6773,73.1138 L550.0493,73.1138 C551.2333,73.1138 551.9403,72.5348 551.9403,71.6008 C551.9403,70.6158 551.2333,70.0888 550.0493,70.0888 M551.5863,74.4038 L554.1643,78.0118 L551.9913,78.0118 L549.6713,74.7028 L547.6773,74.7028 L547.6773,78.0118 L545.8583,78.0118 L545.8583,68.4488 L550.1223,68.4488 C552.3443,68.4488 553.8063,69.5858 553.8063,71.4988 C553.8063,73.0668 552.9003,74.0248 551.5863,74.4038 M549.5663,65.2658 C544.9003,65.2658 541.3683,68.9758 541.3683,73.5188 C541.3683,78.0588 544.8743,81.7198 549.5193,81.7198 C554.1843,81.7198 557.7203,78.0118 557.7203,73.4668 C557.7203,68.9258 554.2113,65.2658 549.5663,65.2658 M549.5193,82.6308 C544.3953,82.6308 540.4083,78.5158 540.4083,73.5188 C540.4083,68.5218 544.4473,64.3598 549.5663,64.3598 C554.6903,64.3598 558.6773,68.4738 558.6773,73.4668 C558.6773,78.4648 554.6413,82.6308 549.5193,82.6308" id="Fill-17" sketch:type="MSShapeGroup"></path>
        </g>
    </g>
</svg>